<svg width="343" height="55" viewBox="0 0 343 55" fill="none" xmlns="http://www.w3.org/2000/svg">
<path d="M31.5069 32.4037L47.3392 0H62.9361V37.9782C58.0705 39.8202 53.8107 41.7427 50.2133 43.7344L50.1607 19.7713L36.1312 49.5078H26.8826L12.7754 19.7713V55H0V0H15.5968L31.5069 32.4037Z" fill="#D9D9D9"/>
<path d="M62.9361 55H50.2396L50.2247 48.4404C54.1214 47.053 58.3666 45.7127 62.9361 44.4281V55Z" fill="#D9D9D9"/>
<path d="M134.764 55H119.48L115.706 45.1138H91.9816L88.1302 55H73.3953L79.7127 40.2706C93.1691 37.3226 108.546 34.767 125.418 32.6928L134.764 55Z" fill="#D9D9D9"/>
<path d="M197.265 55H180.1L168.422 37.8171L156.979 55H140.207L158.014 29.4416C164.79 28.9116 171.731 28.455 178.817 28.0725L197.265 55Z" fill="#D9D9D9"/>
<path fill-rule="evenodd" clip-rule="evenodd" d="M231.068 26.6909C237.096 26.6909 243.065 26.7471 248.964 26.852C250.887 27.7109 252.498 28.9584 253.795 30.5992C255.833 33.1099 256.852 36.1436 256.852 39.7004C256.852 42.8386 255.99 45.5585 254.266 47.8599C252.542 50.1613 250.086 51.9402 246.898 53.1955C243.763 54.3984 240.028 54.9999 235.691 55H208.572V26.9435C215.963 26.7776 223.468 26.6909 231.068 26.6909ZM233.888 32.2471H222.916V44.0155H233.888C236.396 44.0155 238.382 43.4925 239.845 42.4465C241.308 41.3482 242.039 39.8576 242.04 37.9748C242.04 36.1964 241.308 34.7835 239.845 33.7373C238.382 32.6913 236.396 32.1949 233.888 32.2471Z" fill="#D9D9D9"/>
<path d="M270.163 27.4589C275.004 27.651 279.787 27.8768 284.505 28.1377V55H270.163V27.4589Z" fill="#D9D9D9"/>
<path d="M312.198 30.1158C317.076 30.5468 321.859 31.0135 326.541 31.518V55H312.198V30.1158Z" fill="#D9D9D9"/>
<path d="M121.726 23.8785C117.157 24.5914 112.73 25.3406 108.456 26.1275L103.963 14.358L98.6249 28.0588C93.2675 29.1794 88.1952 30.3606 83.4327 31.5969L96.9866 0H111.721L121.726 23.8785Z" fill="#D9D9D9"/>
<path d="M168.422 15.7704L178.767 0H195.697L183.834 17.2218C173.798 17.8828 164.085 18.6968 154.759 19.6536L141.461 0H158.154L168.422 15.7704Z" fill="#D9D9D9"/>
<path d="M343 11.6118H326.541V18.5406C321.844 18.1323 317.06 17.7588 312.198 17.4218V11.6118H295.896V0H343V11.6118Z" fill="#D9D9D9"/>
<path d="M234.672 0C238.851 0 242.457 0.574976 245.488 1.72561C248.518 2.87624 250.869 4.47193 252.541 6.51159C254.213 8.5515 255.049 11.0104 255.049 13.8871C255.049 14.3511 255.024 14.8055 254.98 15.2505C252.182 15.2272 249.369 15.2128 246.544 15.2128C244.427 15.2128 242.318 15.2214 240.216 15.2345C240.008 14.0606 239.467 13.1148 238.591 12.3969C237.441 11.4555 235.874 11.0111 233.888 11.0633H222.916V15.4916C218.083 15.6057 213.3 15.7541 208.572 15.9361V0H234.672Z" fill="#D9D9D9"/>
<path d="M284.505 15.935C279.778 15.7531 274.995 15.6068 270.163 15.4927V0H284.505V15.935Z" fill="#D9D9D9"/>
</svg>
